<svg xmlns="http://www.w3.org/2000/svg" viewBox="0 0 48 48" width="48" height="48">
  <defs>
    <linearGradient id="carGrad" x1="0" y1="0" x2="1" y2="1">
      <stop offset="0%" stop-color="#00d6ff"/>
      <stop offset="100%" stop-color="#7e3dff"/>
    </linearGradient>
  </defs>
  <rect width="48" height="48" rx="10" fill="#06070a"/>
  <path d="M12 28h24l4-8H14c-1.1 0-2 0.9-2 2v4c0 1.1 0.9 2 2 2z" fill="url(#carGrad)"/>
  <path d="M16 18h16l2 4H14l2-4z" fill="#0cf" opacity="0.9"/>
  <circle cx="16" cy="34" r="4" fill="#090d12" stroke="#00f0ff" stroke-width="2"/>
  <circle cx="32" cy="34" r="4" fill="#090d12" stroke="#00f0ff" stroke-width="2"/>
  <path d="M10 26h-4" stroke="#8bf" stroke-width="2" stroke-linecap="round" opacity="0.7"/>
  <path d="M8 22h-3" stroke="#8bf" stroke-width="2" stroke-linecap="round" opacity="0.7"/>
  <path d="M6 18h-2" stroke="#8bf" stroke-width="2" stroke-linecap="round" opacity="0.7"/>
  <path d="M38 22h6" stroke="#fff" stroke-width="2" stroke-linecap="round" opacity="0.8"/>
  <path d="M36 18h8" stroke="#fff" stroke-width="2" stroke-linecap="round" opacity="0.6"/>
  <path d="M40 30h5" stroke="#9cf" stroke-width="3" stroke-linecap="round" opacity="0.5"/>
</svg>
